<svg width="50" height="51" viewBox="0 0 50 51" fill="none" xmlns="http://www.w3.org/2000/svg">
<path d="M25 0.921875L30.9164 5.77252L38.516 4.89054L40.8707 12.1698L47.7408 15.5365L45.7862 22.9333L49.7455 29.4797L44.1023 34.6456L43.8937 42.2934L36.3535 43.5882L32.0433 49.9092L25 46.9219L17.9567 49.9092L13.6465 43.5882L6.10626 42.2934L5.89773 34.6456L0.254463 29.4797L4.21375 22.9333L2.2592 15.5365L9.12926 12.1698L11.484 4.89054L19.0836 5.77252L25 0.921875Z" fill="black"/>
<path d="M16.1109 24.9219V18.2169H18.9369C19.3809 18.2169 19.7589 18.2949 20.0709 18.4509C20.3889 18.6009 20.6319 18.8169 20.7999 19.0989C20.9739 19.3749 21.0609 19.7109 21.0609 20.1069C21.0609 20.4129 20.9769 20.7009 20.8089 20.9709C20.6469 21.2349 20.3859 21.4539 20.0259 21.6279V21.0609C20.3559 21.1869 20.6169 21.3429 20.8089 21.5289C21.0009 21.7149 21.1359 21.9219 21.2139 22.1499C21.2919 22.3779 21.3309 22.6179 21.3309 22.8699C21.3309 23.5119 21.1179 24.0159 20.6919 24.3819C20.2719 24.7419 19.6869 24.9219 18.9369 24.9219H16.1109ZM17.3349 23.8419H19.0629C19.3809 23.8419 19.6329 23.7549 19.8189 23.5809C20.0109 23.4009 20.1069 23.1639 20.1069 22.8699C20.1069 22.5759 20.0109 22.3389 19.8189 22.1589C19.6329 21.9789 19.3809 21.8889 19.0629 21.8889H17.3349V23.8419ZM17.3349 20.8179H18.9999C19.2519 20.8179 19.4529 20.7459 19.6029 20.6019C19.7529 20.4519 19.8279 20.2599 19.8279 20.0259C19.8279 19.7919 19.7529 19.6059 19.6029 19.4679C19.4529 19.3299 19.2519 19.2609 18.9999 19.2609H17.3349V20.8179ZM24.5565 25.0299C24.0525 25.0299 23.6115 24.9159 23.2335 24.6879C22.8555 24.4599 22.5615 24.1509 22.3515 23.7609C22.1415 23.3709 22.0365 22.9389 22.0365 22.4649C22.0365 21.9729 22.1415 21.5379 22.3515 21.1599C22.5675 20.7759 22.8585 20.4729 23.2245 20.2509C23.5965 20.0289 24.0105 19.9179 24.4665 19.9179C24.8505 19.9179 25.1865 19.9809 25.4745 20.1069C25.7685 20.2329 26.0175 20.4069 26.2215 20.6289C26.4255 20.8509 26.5815 21.1059 26.6895 21.3939C26.7975 21.6759 26.8515 21.9819 26.8515 22.3119C26.8515 22.3959 26.8455 22.4829 26.8335 22.5729C26.8275 22.6629 26.8125 22.7409 26.7885 22.8069H23.0085V21.9069H26.1225L25.5645 22.3299C25.6185 22.0539 25.6035 21.8079 25.5195 21.5919C25.4415 21.3759 25.3095 21.2049 25.1235 21.0789C24.9435 20.9529 24.7245 20.8899 24.4665 20.8899C24.2205 20.8899 24.0015 20.9529 23.8095 21.0789C23.6175 21.1989 23.4705 21.3789 23.3685 21.6189C23.2725 21.8529 23.2365 22.1379 23.2605 22.4739C23.2365 22.7739 23.2755 23.0409 23.3775 23.2749C23.4855 23.5029 23.6415 23.6799 23.8455 23.8059C24.0555 23.9319 24.2955 23.9949 24.5655 23.9949C24.8355 23.9949 25.0635 23.9379 25.2495 23.8239C25.4415 23.7099 25.5915 23.5569 25.6995 23.3649L26.6535 23.8329C26.5575 24.0669 26.4075 24.2739 26.2035 24.4539C25.9995 24.6339 25.7565 24.7749 25.4745 24.8769C25.1985 24.9789 24.8925 25.0299 24.5565 25.0299ZM29.6083 25.0299C29.0863 25.0299 28.6303 24.9069 28.2403 24.6609C27.8563 24.4089 27.5923 24.0699 27.4483 23.6439L28.3303 23.2209C28.4563 23.4969 28.6303 23.7129 28.8523 23.8689C29.0803 24.0249 29.3323 24.1029 29.6083 24.1029C29.8243 24.1029 29.9953 24.0549 30.1213 23.9589C30.2473 23.8629 30.3103 23.7369 30.3103 23.5809C30.3103 23.4849 30.2833 23.4069 30.2293 23.3469C30.1813 23.2809 30.1123 23.2269 30.0223 23.1849C29.9383 23.1369 29.8453 23.0979 29.7433 23.0679L28.9423 22.8429C28.5283 22.7229 28.2133 22.5399 27.9973 22.2939C27.7873 22.0479 27.6823 21.7569 27.6823 21.4209C27.6823 21.1209 27.7573 20.8599 27.9073 20.6379C28.0633 20.4099 28.2763 20.2329 28.5463 20.1069C28.8223 19.9809 29.1373 19.9179 29.4913 19.9179C29.9533 19.9179 30.3613 20.0289 30.7153 20.2509C31.0693 20.4729 31.3213 20.7849 31.4713 21.1869L30.5713 21.6099C30.4873 21.3879 30.3463 21.2109 30.1483 21.0789C29.9503 20.9469 29.7283 20.8809 29.4823 20.8809C29.2843 20.8809 29.1283 20.9259 29.0143 21.0159C28.9003 21.1059 28.8433 21.2229 28.8433 21.3669C28.8433 21.4569 28.8673 21.5349 28.9153 21.6009C28.9633 21.6669 29.0293 21.7209 29.1133 21.7629C29.2033 21.8049 29.3053 21.8439 29.4193 21.8799L30.2023 22.1139C30.6043 22.2339 30.9133 22.4139 31.1293 22.6539C31.3513 22.8939 31.4623 23.1879 31.4623 23.5359C31.4623 23.8299 31.3843 24.0909 31.2283 24.3189C31.0723 24.5409 30.8563 24.7149 30.5803 24.8409C30.3043 24.9669 29.9803 25.0299 29.6083 25.0299ZM34.6003 24.9759C34.0483 24.9759 33.6193 24.8259 33.3133 24.5259C33.0133 24.2199 32.8633 23.7909 32.8633 23.2389V21.0789H32.0173V20.0259H32.1073C32.3473 20.0259 32.5333 19.9629 32.6653 19.8369C32.7973 19.7109 32.8633 19.5279 32.8633 19.2879V18.9099H34.0423V20.0259H35.1673V21.0789H34.0423V23.1759C34.0423 23.3379 34.0693 23.4759 34.1233 23.5899C34.1833 23.7039 34.2733 23.7909 34.3933 23.8509C34.5193 23.9109 34.6783 23.9409 34.8703 23.9409C34.9123 23.9409 34.9603 23.9379 35.0143 23.9319C35.0743 23.9259 35.1313 23.9199 35.1853 23.9139V24.9219C35.1013 24.9339 35.0053 24.9459 34.8973 24.9579C34.7893 24.9699 34.6903 24.9759 34.6003 24.9759ZM15.8145 33.9219L13.4745 27.2169H14.8065L16.6425 32.7699H16.3815L18.2175 27.2169H19.5495L17.2185 33.9219H15.8145ZM21.3245 34.0299C20.9825 34.0299 20.6855 33.9729 20.4335 33.8589C20.1815 33.7449 19.9865 33.5829 19.8485 33.3729C19.7105 33.1569 19.6415 32.9079 19.6415 32.6259C19.6415 32.3559 19.7015 32.1159 19.8215 31.9059C19.9415 31.6899 20.1275 31.5099 20.3795 31.3659C20.6315 31.2219 20.9495 31.1199 21.3335 31.0599L22.9355 30.7989V31.6989L21.5585 31.9329C21.3245 31.9749 21.1505 32.0499 21.0365 32.1579C20.9225 32.2659 20.8655 32.4069 20.8655 32.5809C20.8655 32.7489 20.9285 32.8839 21.0545 32.9859C21.1865 33.0819 21.3485 33.1299 21.5405 33.1299C21.7865 33.1299 22.0025 33.0789 22.1885 32.9769C22.3805 32.8689 22.5275 32.7219 22.6295 32.5359C22.7375 32.3499 22.7915 32.1459 22.7915 31.9239V30.6639C22.7915 30.4539 22.7075 30.2799 22.5395 30.1419C22.3775 29.9979 22.1615 29.9259 21.8915 29.9259C21.6395 29.9259 21.4145 29.9949 21.2165 30.1329C21.0245 30.2649 20.8835 30.4419 20.7935 30.6639L19.8305 30.1959C19.9265 29.9379 20.0765 29.7159 20.2805 29.5299C20.4905 29.3379 20.7365 29.1879 21.0185 29.0799C21.3005 28.9719 21.6065 28.9179 21.9365 28.9179C22.3385 28.9179 22.6925 28.9929 22.9985 29.1429C23.3045 29.2869 23.5415 29.4909 23.7095 29.7549C23.8835 30.0129 23.9705 30.3159 23.9705 30.6639V33.9219H22.8545V33.0849L23.1065 33.0669C22.9805 33.2769 22.8305 33.4539 22.6565 33.5979C22.4825 33.7359 22.2845 33.8439 22.0625 33.9219C21.8405 33.9939 21.5945 34.0299 21.3245 34.0299ZM25.0602 33.9219V27.1089H26.2392V33.9219H25.0602ZM29.0738 34.0299C28.6958 34.0299 28.3658 33.9459 28.0838 33.7779C27.8078 33.6099 27.5948 33.3759 27.4448 33.0759C27.3008 32.7759 27.2288 32.4249 27.2288 32.0229V29.0259H28.4078V31.9239C28.4078 32.1279 28.4468 32.3079 28.5248 32.4639C28.6088 32.6139 28.7258 32.7339 28.8758 32.8239C29.0318 32.9079 29.2058 32.9499 29.3978 32.9499C29.5898 32.9499 29.7608 32.9079 29.9108 32.8239C30.0608 32.7339 30.1778 32.6109 30.2618 32.4549C30.3458 32.2989 30.3878 32.1129 30.3878 31.8969V29.0259H31.5668V33.9219H30.4508V32.9589L30.5498 33.1299C30.4358 33.4299 30.2468 33.6549 29.9828 33.8049C29.7248 33.9549 29.4218 34.0299 29.0738 34.0299ZM34.9848 34.0299C34.4808 34.0299 34.0398 33.9159 33.6618 33.6879C33.2838 33.4599 32.9898 33.1509 32.7798 32.7609C32.5698 32.3709 32.4648 31.9389 32.4648 31.4649C32.4648 30.9729 32.5698 30.5379 32.7798 30.1599C32.9958 29.7759 33.2868 29.4729 33.6528 29.2509C34.0248 29.0289 34.4388 28.9179 34.8948 28.9179C35.2788 28.9179 35.6148 28.9809 35.9028 29.1069C36.1968 29.2329 36.4458 29.4069 36.6498 29.6289C36.8538 29.8509 37.0098 30.1059 37.1178 30.3939C37.2258 30.6759 37.2798 30.9819 37.2798 31.3119C37.2798 31.3959 37.2738 31.4829 37.2618 31.5729C37.2558 31.6629 37.2408 31.7409 37.2168 31.8069H33.4368V30.9069H36.5508L35.9928 31.3299C36.0468 31.0539 36.0318 30.8079 35.9478 30.5919C35.8698 30.3759 35.7378 30.2049 35.5518 30.0789C35.3718 29.9529 35.1528 29.8899 34.8948 29.8899C34.6488 29.8899 34.4298 29.9529 34.2378 30.0789C34.0458 30.1989 33.8988 30.3789 33.7968 30.6189C33.7008 30.8529 33.6648 31.1379 33.6888 31.4739C33.6648 31.7739 33.7038 32.0409 33.8058 32.2749C33.9138 32.5029 34.0698 32.6799 34.2738 32.8059C34.4838 32.9319 34.7238 32.9949 34.9938 32.9949C35.2638 32.9949 35.4918 32.9379 35.6778 32.8239C35.8698 32.7099 36.0198 32.5569 36.1278 32.3649L37.0818 32.8329C36.9858 33.0669 36.8358 33.2739 36.6318 33.4539C36.4278 33.6339 36.1848 33.7749 35.9028 33.8769C35.6268 33.9789 35.3208 34.0299 34.9848 34.0299Z" fill="white"/>
</svg>
