<svg width="97" height="145" viewBox="0 0 97 145" fill="none" xmlns="http://www.w3.org/2000/svg">
<path fill-rule="evenodd" clip-rule="evenodd" d="M97.4841 138.214H97.4651C96.6535 138.214 95.9418 138.523 95.3491 138.966C95.2349 139.053 95.0921 139.103 94.9897 139.201C94.4209 139.75 94.0924 140.499 94.021 141.317C94.0138 141.409 93.9662 141.489 93.9662 141.582C93.9662 141.998 94.0686 142.387 94.2138 142.752C94.2614 142.871 94.3209 142.974 94.3804 143.086C94.5089 143.326 94.6636 143.548 94.8493 143.751C94.9397 143.852 95.0207 143.954 95.123 144.044C95.4039 144.288 95.7133 144.503 96.0656 144.651H96.0679C96.5035 144.837 96.9795 144.949 97.4841 144.949C99.0479 144.949 100.326 143.952 100.781 142.593C100.902 142.282 100.985 141.957 100.988 141.601C100.988 141.594 100.993 141.589 100.993 141.582C100.993 139.72 99.4216 138.214 97.4841 138.214ZM145.962 99.0231C145.622 98.886 145.244 98.8335 144.856 98.8084C144.787 98.8061 144.732 98.7695 144.66 98.7695H144.641C142.704 98.7695 141.143 100.277 141.143 102.139C141.143 102.591 141.242 103.019 141.411 103.407C141.53 103.686 141.726 103.909 141.909 104.145C141.985 104.234 142.028 104.343 142.109 104.426C142.692 105.02 143.496 105.385 144.396 105.454C144.401 105.454 144.406 105.456 144.41 105.458V105.456C144.496 105.463 144.572 105.504 144.66 105.504C146.598 105.504 148.169 103.996 148.169 102.139C148.169 100.723 147.252 99.5211 145.962 99.0231ZM27.2216 40.084H27.2026C25.2651 40.084 23.7038 41.5917 23.7038 43.4512C23.7038 45.3084 25.2842 46.8184 27.2216 46.8184C29.1567 46.8184 30.73 45.3084 30.73 43.4512C30.73 41.5917 29.1567 40.084 27.2216 40.084ZM27.2216 118.973H27.2026C25.2651 118.973 23.7038 120.479 23.7038 122.341C23.7038 124.199 25.2842 125.707 27.2216 125.707C29.1567 125.707 30.73 124.199 30.73 122.341C30.73 120.479 29.1567 118.973 27.2216 118.973ZM51.3116 67.0218C53.2491 67.0218 54.82 65.5118 54.82 63.6546C54.82 61.7928 53.2491 60.2874 51.3116 60.2874H51.295C49.3551 60.2874 47.7938 61.7928 47.7938 63.6546C47.7938 65.5118 49.3742 67.0218 51.3116 67.0218ZM27.2216 19.8806H27.2026C25.2651 19.8806 23.7038 21.3883 23.7038 23.2478C23.7038 25.1073 25.2842 26.615 27.2216 26.615C29.1567 26.615 30.73 25.1073 30.73 23.2478C30.73 21.3883 29.1567 19.8806 27.2216 19.8806ZM27.2216 78.5664H27.2026C25.2651 78.5664 23.7038 80.0741 23.7038 81.9336C23.7038 83.7931 25.2842 85.3008 27.2216 85.3008C29.1567 85.3008 30.73 83.7931 30.73 81.9336C30.73 80.0741 29.1567 78.5664 27.2216 78.5664ZM27.2216 98.7695H27.2026C25.2651 98.7695 23.7038 100.277 23.7038 102.139C23.7038 103.996 25.2842 105.504 27.2216 105.504C29.1567 105.504 30.73 103.996 30.73 102.139C30.73 100.277 29.1567 98.7695 27.2216 98.7695ZM51.3116 26.615C53.2491 26.615 54.82 25.1073 54.82 23.2478C54.82 21.3883 53.2491 19.8806 51.3116 19.8806H51.295C49.3551 19.8806 47.7938 21.3883 47.7938 23.2478C47.7938 25.1073 49.3742 26.615 51.3116 26.615ZM51.3116 46.8184C53.2491 46.8184 54.82 45.3084 54.82 43.4512C54.82 41.5917 53.2491 40.084 51.3116 40.084H51.295C49.3551 40.084 47.7938 41.5917 47.7938 43.4512C47.7938 45.3084 49.3742 46.8184 51.3116 46.8184ZM51.3116 7.37407C53.2491 7.37407 54.82 5.86636 54.82 4.00686C54.82 2.14735 53.2491 0.639648 51.3116 0.639648H51.295C49.3551 0.639648 47.7938 2.14735 47.7938 4.00686C47.7938 5.86636 49.3742 7.37407 51.3116 7.37407ZM27.2216 60.2874H27.2026C25.2651 60.2874 23.7038 61.7928 23.7038 63.6546C23.7038 65.5118 25.2842 67.0218 27.2216 67.0218C29.1567 67.0218 30.73 65.5118 30.73 63.6546C30.73 61.7928 29.1567 60.2874 27.2216 60.2874ZM4.13794 78.5665H4.11652C2.17906 78.5665 0.617676 80.0742 0.617676 81.9337C0.617676 83.7932 2.20049 85.3009 4.13794 85.3009C6.0754 85.3009 7.64393 83.7932 7.64393 81.9337C7.64393 80.0742 6.0754 78.5665 4.13794 78.5665ZM4.13794 60.2872H4.11652C2.17906 60.2872 0.617676 61.7927 0.617676 63.6545C0.617676 65.5117 2.20049 67.0217 4.13794 67.0217C6.0754 67.0217 7.64393 65.5117 7.64393 63.6545C7.64393 61.7927 6.0754 60.2872 4.13794 60.2872ZM4.13675 98.7696H4.11532C3.67484 98.7696 3.26294 98.8655 2.8796 99.0117C2.68436 99.0825 2.52245 99.1968 2.34626 99.2996C2.19864 99.3886 2.04864 99.4686 1.91531 99.5805C1.68435 99.761 1.5034 99.9712 1.32721 100.204C1.29387 100.252 1.26054 100.296 1.2272 100.348C1.03673 100.631 0.89625 100.928 0.801011 101.262L0.79863 101.264V101.266C0.717677 101.55 0.617676 101.828 0.617676 102.139C0.617676 103.464 1.43911 104.586 2.60341 105.134V105.136H2.60579C3.07008 105.353 3.57008 105.497 4.11771 105.499C4.12485 105.499 4.12961 105.504 4.13675 105.504C6.07486 105.504 7.64393 103.996 7.64393 102.139C7.64393 101.673 7.54631 101.23 7.36773 100.828C6.83678 99.6194 5.58915 98.7696 4.13675 98.7696ZM121.574 60.2874H121.555C119.618 60.2874 118.056 61.7928 118.056 63.6546C118.056 65.5118 119.637 67.0218 121.574 67.0218C123.512 67.0218 125.083 65.5118 125.083 63.6546C125.083 61.7928 123.512 60.2874 121.574 60.2874ZM4.13675 40.084H4.11532C3.71532 40.084 3.34627 40.1685 2.99865 40.301C2.68198 40.4061 2.40579 40.5637 2.13912 40.7464C2.13674 40.7464 2.13674 40.7464 2.13436 40.7487C1.23673 41.3587 0.617676 42.3135 0.617676 43.4512C0.617676 43.5951 0.684343 43.7162 0.703391 43.8578H0.70101C0.70101 43.8624 0.703391 43.8646 0.705772 43.8669C0.815297 44.687 1.19863 45.4112 1.81054 45.9366C1.89388 46.0097 1.99864 46.0508 2.08674 46.1148C2.32721 46.2838 2.55817 46.4597 2.8415 46.5671C3.23913 46.7247 3.67246 46.8184 4.13675 46.8184C5.58915 46.8184 6.83678 45.9709 7.36773 44.7601C7.54631 44.3581 7.64393 43.9149 7.64393 43.4512C7.64393 42.9874 7.54631 42.5443 7.36773 42.1422C6.83678 40.9315 5.58915 40.084 4.13675 40.084ZM121.574 78.5664H121.555C119.618 78.5664 118.056 80.0741 118.056 81.9336C118.056 83.7931 119.637 85.3008 121.574 85.3008C123.512 85.3008 125.083 83.7931 125.083 81.9336C125.083 80.0741 123.512 78.5664 121.574 78.5664ZM121.574 40.084H121.555C119.618 40.084 118.056 41.5917 118.056 43.4512C118.056 45.3084 119.637 46.8184 121.574 46.8184C123.512 46.8184 125.083 45.3084 125.083 43.4512C125.083 41.5917 123.512 40.084 121.574 40.084ZM121.574 118.973H121.555C119.618 118.973 118.056 120.479 118.056 122.341C118.056 124.199 119.637 125.707 121.574 125.707C123.512 125.707 125.083 124.199 125.083 122.341C125.083 120.479 123.512 118.973 121.574 118.973ZM121.574 98.7695H121.555C119.618 98.7695 118.056 100.277 118.056 102.139C118.056 103.996 119.637 105.504 121.574 105.504C123.512 105.504 125.083 103.996 125.083 102.139C125.083 100.277 123.512 98.7695 121.574 98.7695ZM97.4853 7.37407C99.4221 7.37407 100.993 5.86636 100.993 4.00686C100.993 4.00686 100.99 4.00457 100.99 4.00229C100.99 3.45632 100.824 2.9606 100.581 2.50372C100.557 2.46032 100.526 2.42834 100.5 2.38722C100.245 1.95546 99.898 1.59681 99.4768 1.30898H99.4745C98.901 0.918346 98.2396 0.639648 97.4853 0.639648H97.4663C95.5295 0.639648 93.9662 2.14735 93.9662 4.00686C93.9662 5.86636 95.5485 7.37407 97.4853 7.37407ZM121.574 19.8806H121.555C119.618 19.8806 118.056 21.3883 118.056 23.2478C118.056 25.1073 119.637 26.615 121.574 26.615C123.512 26.615 125.083 25.1073 125.083 23.2478C125.083 21.3883 123.512 19.8806 121.574 19.8806ZM97.4841 40.084H97.4651C95.5276 40.084 93.9662 41.5917 93.9662 43.4512C93.9662 45.3084 95.5467 46.8184 97.4841 46.8184C99.4216 46.8184 100.993 45.3084 100.993 43.4512C100.993 41.5917 99.4216 40.084 97.4841 40.084ZM97.4841 98.7695H97.4651C95.5276 98.7695 93.9662 100.277 93.9662 102.139C93.9662 103.996 95.5467 105.504 97.4841 105.504C99.4216 105.504 100.993 103.996 100.993 102.139C100.993 100.277 99.4216 98.7695 97.4841 98.7695ZM97.4841 78.5664H97.4651C95.5276 78.5664 93.9662 80.0741 93.9662 81.9336C93.9662 83.7931 95.5467 85.3008 97.4841 85.3008C99.4216 85.3008 100.993 83.7931 100.993 81.9336C100.993 80.0741 99.4216 78.5664 97.4841 78.5664ZM97.4841 60.2874H97.4651C95.5276 60.2874 93.9662 61.7928 93.9662 63.6546C93.9662 65.5118 95.5467 67.0218 97.4841 67.0218C99.4216 67.0218 100.993 65.5118 100.993 63.6546C100.993 61.7928 99.4216 60.2874 97.4841 60.2874ZM97.4841 118.973H97.4651C95.5276 118.973 93.9662 120.479 93.9662 122.341C93.9662 124.199 95.5467 125.707 97.4841 125.707C99.4216 125.707 100.993 124.199 100.993 122.341C100.993 120.479 99.4216 118.973 97.4841 118.973ZM51.3116 85.3008C53.2491 85.3008 54.82 83.7931 54.82 81.9336C54.82 80.0741 53.2491 78.5664 51.3116 78.5664H51.295C49.3551 78.5664 47.7938 80.0741 47.7938 81.9336C47.7938 83.7931 49.3742 85.3008 51.3116 85.3008ZM53.7918 139.201C53.687 139.101 53.5442 139.05 53.4276 138.966C52.8349 138.523 52.1233 138.214 51.3116 138.214H51.2926C49.3551 138.214 47.7938 139.72 47.7938 141.582C47.7938 142.497 48.1817 143.319 48.8006 143.927C48.8029 143.929 48.8029 143.932 48.8053 143.932C49.4432 144.558 50.3286 144.949 51.3116 144.949C51.4973 144.949 51.6568 144.875 51.8353 144.848C51.8377 144.848 51.84 144.846 51.8424 144.846C52.6707 144.722 53.3943 144.357 53.9203 143.779C54.006 143.689 54.056 143.58 54.1298 143.481C54.2892 143.264 54.4582 143.059 54.5629 142.81C54.72 142.437 54.8129 142.03 54.8152 141.596C54.8152 141.592 54.82 141.589 54.82 141.582C54.82 140.728 54.4606 139.969 53.9155 139.375C53.8656 139.32 53.8441 139.249 53.7918 139.201ZM143.293 46.5535C143.714 46.7248 144.176 46.8184 144.662 46.8184C145.173 46.8184 145.652 46.7019 146.09 46.5124C146.104 46.5055 146.114 46.4941 146.128 46.4873C146.557 46.2955 146.926 46.026 147.238 45.6926C147.804 45.0965 148.169 44.3201 148.169 43.4523C148.169 41.5935 146.597 40.084 144.662 40.084H144.643C142.704 40.084 141.143 41.5935 141.143 43.4523C141.143 44.8453 142.031 46.042 143.293 46.5535ZM144.662 67.0218C146.597 67.0218 148.169 65.5118 148.169 63.6546C148.169 61.7928 146.597 60.2874 144.662 60.2874H144.643C142.704 60.2874 141.143 61.7928 141.143 63.6546C141.143 65.5118 142.721 67.0218 144.662 67.0218ZM144.662 85.3008C146.597 85.3008 148.169 83.7931 148.169 81.9336C148.169 80.0741 146.597 78.5664 144.662 78.5664H144.643C142.704 78.5664 141.143 80.0741 141.143 81.9336C141.143 83.7931 142.721 85.3008 144.662 85.3008ZM74.3979 40.084H74.3812C72.4438 40.084 70.88 41.5917 70.88 43.4512C70.88 45.3084 72.4604 46.8184 74.3979 46.8184C76.3353 46.8184 77.9062 45.3084 77.9062 43.4512C77.9062 41.5917 76.3353 40.084 74.3979 40.084ZM74.3979 19.8806H74.3812C72.4438 19.8806 70.88 21.3883 70.88 23.2478C70.88 25.1073 72.4604 26.615 74.3979 26.615C76.3353 26.615 77.9062 25.1073 77.9062 23.2478C77.9062 21.3883 76.3353 19.8806 74.3979 19.8806ZM74.3979 0.639648H74.3812C72.4438 0.639648 70.88 2.14735 70.88 4.00686C70.88 5.86636 72.4604 7.37407 74.3979 7.37407C76.3353 7.37407 77.9062 5.86636 77.9062 4.00686C77.9062 2.14735 76.3353 0.639648 74.3979 0.639648ZM51.3116 125.707C53.2491 125.707 54.82 124.199 54.82 122.341C54.82 120.479 53.2491 118.973 51.3116 118.973H51.295C49.3551 118.973 47.7938 120.479 47.7938 122.341C47.7938 124.199 49.3742 125.707 51.3116 125.707ZM51.3116 105.504C53.2491 105.504 54.82 103.996 54.82 102.139C54.82 100.277 53.2491 98.7695 51.3116 98.7695H51.295C49.3551 98.7695 47.7938 100.277 47.7938 102.139C47.7938 103.996 49.3742 105.504 51.3116 105.504ZM74.3979 60.2874H74.3812C72.4438 60.2874 70.88 61.7928 70.88 63.6546C70.88 65.5118 72.4604 67.0218 74.3979 67.0218C76.3353 67.0218 77.9062 65.5118 77.9062 63.6546C77.9062 61.7928 76.3353 60.2874 74.3979 60.2874ZM97.4841 19.8806H97.4651C95.5276 19.8806 93.9662 21.3883 93.9662 23.2478C93.9662 25.1073 95.5467 26.615 97.4841 26.615C99.4216 26.615 100.993 25.1073 100.993 23.2478C100.993 21.3883 99.4216 19.8806 97.4841 19.8806ZM74.3979 118.973H74.3812C72.4438 118.973 70.88 120.479 70.88 122.341C70.88 124.199 72.4604 125.707 74.3979 125.707C76.3353 125.707 77.9062 124.199 77.9062 122.341C77.9062 120.479 76.3353 118.973 74.3979 118.973ZM74.3979 138.214H74.3812C72.4438 138.214 70.88 139.722 70.88 141.582C70.88 143.443 72.4604 144.949 74.3979 144.949C76.3353 144.949 77.9062 143.443 77.9062 141.582C77.9062 139.722 76.3353 138.214 74.3979 138.214ZM74.3979 98.7695H74.3812C72.4438 98.7695 70.88 100.277 70.88 102.139C70.88 103.996 72.4604 105.504 74.3979 105.504C76.3353 105.504 77.9062 103.996 77.9062 102.139C77.9062 100.277 76.3353 98.7695 74.3979 98.7695ZM74.3979 78.5664H74.3812C72.4438 78.5664 70.88 80.0741 70.88 81.9336C70.88 83.7931 72.4604 85.3008 74.3979 85.3008C76.3353 85.3008 77.9062 83.7931 77.9062 81.9336C77.9062 80.0741 76.3353 78.5664 74.3979 78.5664Z" fill="#68D585"/>
</svg>
