<svg width="1600" height="1062" viewBox="0 0 1600 1062" fill="none" xmlns="http://www.w3.org/2000/svg">
<rect width="1600" height="1061.15" fill="#F4F7FA"/>
<mask id="mask0_15_2432" style="mask-type:luminance" maskUnits="userSpaceOnUse" x="0" y="0" width="1600" height="1062">
<rect width="1600" height="1061.15" fill="white"/>
</mask>
<g mask="url(#mask0_15_2432)">
<path fillRule="evenodd" clipRule="evenodd" d="M1594.5 1034.21H1594.49C1593.68 1034.21 1592.97 1034.52 1592.38 1034.97C1592.26 1035.05 1592.12 1035.1 1592.02 1035.2C1591.45 1035.75 1591.13 1036.5 1591.05 1037.32C1591.05 1037.41 1591 1037.49 1591 1037.58C1591 1038 1591.1 1038.39 1591.25 1038.75C1591.29 1038.87 1591.35 1038.97 1591.41 1039.09C1591.54 1039.33 1591.69 1039.55 1591.88 1039.75C1591.97 1039.85 1592.05 1039.95 1592.15 1040.04C1592.43 1040.29 1592.74 1040.5 1593.09 1040.65H1593.09C1593.53 1040.84 1594 1040.95 1594.5 1040.95C1596.06 1040.95 1597.34 1039.95 1597.79 1038.59C1597.91 1038.28 1597.99 1037.96 1598 1037.6C1598 1037.59 1598 1037.59 1598 1037.58C1598 1035.72 1596.43 1034.21 1594.5 1034.21ZM1642.8 995.023C1642.46 994.886 1642.09 994.834 1641.7 994.808C1641.63 994.806 1641.58 994.77 1641.5 994.77H1641.49C1639.56 994.77 1638 996.277 1638 998.139C1638 998.591 1638.1 999.019 1638.27 999.407C1638.39 999.686 1638.58 999.909 1638.76 1000.14C1638.84 1000.23 1638.88 1000.34 1638.96 1000.43C1639.54 1001.02 1640.35 1001.39 1641.24 1001.45C1641.25 1001.45 1641.25 1001.46 1641.26 1001.46V1001.46C1641.34 1001.46 1641.42 1001.5 1641.5 1001.5C1643.43 1001.5 1645 999.996 1645 998.139C1645 996.723 1644.09 995.521 1642.8 995.023ZM1524.5 936.084H1524.49C1522.56 936.084 1521 937.592 1521 939.451C1521 941.308 1522.57 942.818 1524.5 942.818C1526.43 942.818 1528 941.308 1528 939.451C1528 937.592 1526.43 936.084 1524.5 936.084ZM1524.5 1014.97H1524.49C1522.56 1014.97 1521 1016.48 1521 1018.34C1521 1020.2 1522.57 1021.71 1524.5 1021.71C1526.43 1021.71 1528 1020.2 1528 1018.34C1528 1016.48 1526.43 1014.97 1524.5 1014.97ZM1548.5 963.022C1550.43 963.022 1552 961.512 1552 959.654C1552 957.793 1550.43 956.287 1548.5 956.287H1548.49C1546.56 956.287 1545 957.793 1545 959.654C1545 961.512 1546.57 963.022 1548.5 963.022ZM1524.5 915.881H1524.49C1522.56 915.881 1521 917.388 1521 919.248C1521 921.107 1522.57 922.615 1524.5 922.615C1526.43 922.615 1528 921.107 1528 919.248C1528 917.388 1526.43 915.881 1524.5 915.881ZM1524.5 974.567H1524.49C1522.56 974.567 1521 976.074 1521 977.934C1521 979.793 1522.57 981.301 1524.5 981.301C1526.43 981.301 1528 979.793 1528 977.934C1528 976.074 1526.43 974.567 1524.5 974.567ZM1524.5 994.77H1524.49C1522.56 994.77 1521 996.277 1521 998.139C1521 999.996 1522.57 1001.5 1524.5 1001.5C1526.43 1001.5 1528 999.996 1528 998.139C1528 996.277 1526.43 994.77 1524.5 994.77ZM1548.5 922.615C1550.43 922.615 1552 921.107 1552 919.248C1552 917.388 1550.43 915.881 1548.5 915.881H1548.49C1546.56 915.881 1545 917.388 1545 919.248C1545 921.107 1546.57 922.615 1548.5 922.615ZM1548.5 942.818C1550.43 942.818 1552 941.308 1552 939.451C1552 937.592 1550.43 936.084 1548.5 936.084H1548.49C1546.56 936.084 1545 937.592 1545 939.451C1545 941.308 1546.57 942.818 1548.5 942.818ZM1548.5 903.374C1550.43 903.374 1552 901.866 1552 900.007C1552 898.147 1550.43 896.64 1548.5 896.64H1548.49C1546.56 896.64 1545 898.147 1545 900.007C1545 901.866 1546.57 903.374 1548.5 903.374ZM1524.5 956.287H1524.49C1522.56 956.287 1521 957.793 1521 959.654C1521 961.512 1522.57 963.022 1524.5 963.022C1526.43 963.022 1528 961.512 1528 959.654C1528 957.793 1526.43 956.287 1524.5 956.287ZM1501.51 974.567H1501.49C1499.56 974.567 1498 976.074 1498 977.934C1498 979.793 1499.58 981.301 1501.51 981.301C1503.44 981.301 1505 979.793 1505 977.934C1505 976.074 1503.44 974.567 1501.51 974.567ZM1501.51 956.287H1501.49C1499.56 956.287 1498 957.793 1498 959.654C1498 961.512 1499.58 963.022 1501.51 963.022C1503.44 963.022 1505 961.512 1505 959.654C1505 957.793 1503.44 956.287 1501.51 956.287ZM1501.51 994.77H1501.48C1501.05 994.77 1500.64 994.866 1500.25 995.012C1500.06 995.083 1499.9 995.197 1499.72 995.3C1499.58 995.389 1499.43 995.469 1499.29 995.581C1499.06 995.761 1498.88 995.971 1498.71 996.204C1498.67 996.252 1498.64 996.296 1498.61 996.348C1498.42 996.631 1498.28 996.928 1498.18 997.262L1498.18 997.264V997.266C1498.1 997.55 1498 997.828 1498 998.139C1498 999.464 1498.82 1000.59 1499.98 1001.13V1001.14H1499.98C1500.44 1001.35 1500.94 1001.5 1501.49 1001.5C1501.49 1001.5 1501.5 1001.5 1501.51 1001.5C1503.44 1001.5 1505 999.996 1505 998.139C1505 997.673 1504.9 997.23 1504.72 996.828C1504.2 995.619 1502.95 994.77 1501.51 994.77ZM1618.5 956.287H1618.49C1616.56 956.287 1615 957.793 1615 959.654C1615 961.512 1616.57 963.022 1618.5 963.022C1620.43 963.022 1622 961.512 1622 959.654C1622 957.793 1620.43 956.287 1618.5 956.287ZM1501.51 936.084H1501.48C1501.09 936.084 1500.72 936.168 1500.37 936.301C1500.06 936.406 1499.78 936.564 1499.52 936.746C1499.51 936.746 1499.51 936.746 1499.51 936.749C1498.62 937.359 1498 938.314 1498 939.451C1498 939.595 1498.07 939.716 1498.09 939.858H1498.08C1498.08 939.862 1498.09 939.865 1498.09 939.867C1498.2 940.687 1498.58 941.411 1499.19 941.937C1499.27 942.01 1499.38 942.051 1499.46 942.115C1499.7 942.284 1499.93 942.46 1500.22 942.567C1500.61 942.725 1501.04 942.818 1501.51 942.818C1502.95 942.818 1504.2 941.971 1504.72 940.76C1504.9 940.358 1505 939.915 1505 939.451C1505 938.987 1504.9 938.544 1504.72 938.142C1504.2 936.931 1502.95 936.084 1501.51 936.084ZM1618.5 974.567H1618.49C1616.56 974.567 1615 976.074 1615 977.934C1615 979.793 1616.57 981.301 1618.5 981.301C1620.43 981.301 1622 979.793 1622 977.934C1622 976.074 1620.43 974.567 1618.5 974.567ZM1618.5 936.084H1618.49C1616.56 936.084 1615 937.592 1615 939.451C1615 941.308 1616.57 942.818 1618.5 942.818C1620.43 942.818 1622 941.308 1622 939.451C1622 937.592 1620.43 936.084 1618.5 936.084ZM1618.5 1014.97H1618.49C1616.56 1014.97 1615 1016.48 1615 1018.34C1615 1020.2 1616.57 1021.71 1618.5 1021.71C1620.43 1021.71 1622 1020.2 1622 1018.34C1622 1016.48 1620.43 1014.97 1618.5 1014.97ZM1618.5 994.77H1618.49C1616.56 994.77 1615 996.277 1615 998.139C1615 999.996 1616.57 1001.5 1618.5 1001.5C1620.43 1001.5 1622 999.996 1622 998.139C1622 996.277 1620.43 994.77 1618.5 994.77ZM1594.51 903.374C1596.44 903.374 1598 901.866 1598 900.007C1598 900.007 1598 900.005 1598 900.002C1598 899.456 1597.83 898.961 1597.59 898.504C1597.57 898.46 1597.54 898.428 1597.51 898.387C1597.26 897.955 1596.91 897.597 1596.49 897.309H1596.49C1595.92 896.918 1595.26 896.64 1594.51 896.64H1594.49C1592.56 896.64 1591 898.147 1591 900.007C1591 901.866 1592.58 903.374 1594.51 903.374ZM1618.5 915.881H1618.49C1616.56 915.881 1615 917.388 1615 919.248C1615 921.107 1616.57 922.615 1618.5 922.615C1620.43 922.615 1622 921.107 1622 919.248C1622 917.388 1620.43 915.881 1618.5 915.881ZM1594.5 936.084H1594.49C1592.56 936.084 1591 937.592 1591 939.451C1591 941.308 1592.57 942.818 1594.5 942.818C1596.43 942.818 1598 941.308 1598 939.451C1598 937.592 1596.43 936.084 1594.5 936.084ZM1594.5 994.77H1594.49C1592.56 994.77 1591 996.277 1591 998.139C1591 999.996 1592.57 1001.5 1594.5 1001.5C1596.43 1001.5 1598 999.996 1598 998.139C1598 996.277 1596.43 994.77 1594.5 994.77ZM1594.5 974.567H1594.49C1592.56 974.567 1591 976.074 1591 977.934C1591 979.793 1592.57 981.301 1594.5 981.301C1596.43 981.301 1598 979.793 1598 977.934C1598 976.074 1596.43 974.567 1594.5 974.567ZM1594.5 956.287H1594.49C1592.56 956.287 1591 957.793 1591 959.654C1591 961.512 1592.57 963.022 1594.5 963.022C1596.43 963.022 1598 961.512 1598 959.654C1598 957.793 1596.43 956.287 1594.5 956.287ZM1594.5 1014.97H1594.49C1592.56 1014.97 1591 1016.48 1591 1018.34C1591 1020.2 1592.57 1021.71 1594.5 1021.71C1596.43 1021.71 1598 1020.2 1598 1018.34C1598 1016.48 1596.43 1014.97 1594.5 1014.97ZM1548.5 981.301C1550.43 981.301 1552 979.793 1552 977.934C1552 976.074 1550.43 974.567 1548.5 974.567H1548.49C1546.56 974.567 1545 976.074 1545 977.934C1545 979.793 1546.57 981.301 1548.5 981.301ZM1550.98 1035.2C1550.87 1035.1 1550.73 1035.05 1550.61 1034.97C1550.02 1034.52 1549.31 1034.21 1548.5 1034.21H1548.49C1546.56 1034.21 1545 1035.72 1545 1037.58C1545 1038.5 1545.39 1039.32 1546 1039.93C1546.01 1039.93 1546.01 1039.93 1546.01 1039.93C1546.64 1040.56 1547.53 1040.95 1548.5 1040.95C1548.69 1040.95 1548.85 1040.88 1549.03 1040.85C1549.03 1040.85 1549.03 1040.85 1549.03 1040.85C1549.86 1040.72 1550.58 1040.36 1551.1 1039.78C1551.19 1039.69 1551.24 1039.58 1551.31 1039.48C1551.47 1039.26 1551.64 1039.06 1551.74 1038.81C1551.9 1038.44 1551.99 1038.03 1552 1037.6C1552 1037.59 1552 1037.59 1552 1037.58C1552 1036.73 1551.64 1035.97 1551.1 1035.37C1551.05 1035.32 1551.03 1035.25 1550.98 1035.2ZM1640.14 942.553C1640.56 942.725 1641.02 942.818 1641.51 942.818C1642.02 942.818 1642.49 942.702 1642.93 942.512C1642.94 942.506 1642.95 942.494 1642.97 942.487C1643.39 942.295 1643.76 942.026 1644.07 941.693C1644.64 941.097 1645 940.32 1645 939.452C1645 937.593 1643.43 936.084 1641.51 936.084H1641.49C1639.56 936.084 1638 937.593 1638 939.452C1638 940.845 1638.88 942.042 1640.14 942.553ZM1641.51 963.022C1643.43 963.022 1645 961.512 1645 959.654C1645 957.793 1643.43 956.287 1641.51 956.287H1641.49C1639.56 956.287 1638 957.793 1638 959.654C1638 961.512 1639.57 963.022 1641.51 963.022ZM1641.51 981.301C1643.43 981.301 1645 979.793 1645 977.934C1645 976.074 1643.43 974.567 1641.51 974.567H1641.49C1639.56 974.567 1638 976.074 1638 977.934C1638 979.793 1639.57 981.301 1641.51 981.301ZM1571.5 936.084H1571.49C1569.56 936.084 1568 937.592 1568 939.451C1568 941.308 1569.57 942.818 1571.5 942.818C1573.43 942.818 1575 941.308 1575 939.451C1575 937.592 1573.43 936.084 1571.5 936.084ZM1571.5 915.881H1571.49C1569.56 915.881 1568 917.388 1568 919.248C1568 921.107 1569.57 922.615 1571.5 922.615C1573.43 922.615 1575 921.107 1575 919.248C1575 917.388 1573.43 915.881 1571.5 915.881ZM1571.5 896.64H1571.49C1569.56 896.64 1568 898.147 1568 900.007C1568 901.866 1569.57 903.374 1571.5 903.374C1573.43 903.374 1575 901.866 1575 900.007C1575 898.147 1573.43 896.64 1571.5 896.64ZM1548.5 1021.71C1550.43 1021.71 1552 1020.2 1552 1018.34C1552 1016.48 1550.43 1014.97 1548.5 1014.97H1548.49C1546.56 1014.97 1545 1016.48 1545 1018.34C1545 1020.2 1546.57 1021.71 1548.5 1021.71ZM1548.5 1001.5C1550.43 1001.5 1552 999.996 1552 998.139C1552 996.277 1550.43 994.77 1548.5 994.77H1548.49C1546.56 994.77 1545 996.277 1545 998.139C1545 999.996 1546.57 1001.5 1548.5 1001.5ZM1571.5 956.287H1571.49C1569.56 956.287 1568 957.793 1568 959.654C1568 961.512 1569.57 963.022 1571.5 963.022C1573.43 963.022 1575 961.512 1575 959.654C1575 957.793 1573.43 956.287 1571.5 956.287ZM1594.5 915.881H1594.49C1592.56 915.881 1591 917.388 1591 919.248C1591 921.107 1592.57 922.615 1594.5 922.615C1596.43 922.615 1598 921.107 1598 919.248C1598 917.388 1596.43 915.881 1594.5 915.881ZM1571.5 1014.97H1571.49C1569.56 1014.97 1568 1016.48 1568 1018.34C1568 1020.2 1569.57 1021.71 1571.5 1021.71C1573.43 1021.71 1575 1020.2 1575 1018.34C1575 1016.48 1573.43 1014.97 1571.5 1014.97ZM1571.5 1034.21H1571.49C1569.56 1034.21 1568 1035.72 1568 1037.58C1568 1039.44 1569.57 1040.95 1571.5 1040.95C1573.43 1040.95 1575 1039.44 1575 1037.58C1575 1035.72 1573.43 1034.21 1571.5 1034.21ZM1571.5 994.77H1571.49C1569.56 994.77 1568 996.277 1568 998.139C1568 999.996 1569.57 1001.5 1571.5 1001.5C1573.43 1001.5 1575 999.996 1575 998.139C1575 996.277 1573.43 994.77 1571.5 994.77ZM1571.5 974.567H1571.49C1569.56 974.567 1568 976.074 1568 977.934C1568 979.793 1569.57 981.301 1571.5 981.301C1573.43 981.301 1575 979.793 1575 977.934C1575 976.074 1573.43 974.567 1571.5 974.567Z" fill="#68D585"/>
<path fillRule="evenodd" clipRule="evenodd" d="M32.9067 1063.13C32.9067 1063.13 282.824 1032.85 411.835 1038.01C540.846 1043.17 572.975 1044.63 641.837 1038.01C710.699 1031.39 1039.46 980.88 1192.42 987.004C1345.38 993.128 1595.41 1029.23 1654 998.938V1075H32L32.9067 1063.13Z" fill="#FDFDFF"/>
</g>
</svg>
