<svg width="97" height="105" viewBox="0 0 97 105" fill="none" xmlns="http://www.w3.org/2000/svg">
<path fillRule="evenodd" clipRule="evenodd" d="M46.5047 98H46.4858C45.6772 98 44.9682 98.3207 44.3777 98.7815C44.2639 98.8717 44.1216 98.924 44.0196 99.0261C43.4529 99.5962 43.1257 100.375 43.0545 101.226C43.0474 101.321 43 101.404 43 101.501C43 101.933 43.102 102.337 43.2466 102.717C43.294 102.841 43.3533 102.948 43.4126 103.064C43.5406 103.314 43.6948 103.544 43.8797 103.755C43.9698 103.86 44.0505 103.967 44.1524 104.059C44.4323 104.314 44.7405 104.537 45.0915 104.691H45.0938C45.5278 104.884 46.002 105 46.5047 105C48.0627 105 49.336 103.964 49.789 102.551C49.9099 102.228 49.9929 101.891 49.9953 101.52C49.9953 101.513 50 101.508 50 101.501C50 99.5653 48.435 98 46.5047 98ZM94.8018 57.2636C94.4627 57.1211 94.0857 57.0665 93.6992 57.0404C93.6304 57.038 93.5759 57 93.5047 57H93.4858C91.5556 57 90 58.5672 90 60.5024C90 60.9725 90.0996 61.4166 90.268 61.8202C90.3865 62.1099 90.581 62.3426 90.7635 62.5872C90.8394 62.6798 90.8821 62.7938 90.9627 62.8792C91.5437 63.4966 92.3452 63.8765 93.2415 63.9478C93.2463 63.9478 93.251 63.9501 93.2558 63.9525V63.9501C93.3411 63.9573 93.417 64 93.5047 64C95.435 64 97 62.4328 97 60.5024C97 59.0302 96.0871 57.7812 94.8018 57.2636ZM-23.4953 -4H-23.5142C-25.4444 -4 -27 -2.43283 -27 -0.5C-27 1.43046 -25.4255 3 -23.4953 3C-21.5674 3 -20 1.43046 -20 -0.5C-20 -2.43283 -21.5674 -4 -23.4953 -4ZM-23.4953 78H-23.5142C-25.4444 78 -27 79.5653 -27 81.5012C-27 83.4323 -25.4255 85 -23.4953 85C-21.5674 85 -20 83.4323 -20 81.5012C-20 79.5653 -21.5674 78 -23.4953 78ZM0.504742 24C2.43496 24 4 22.4305 4 20.5C4 18.5648 2.43496 17 0.504742 17H0.488144C-1.44444 17 -3 18.5648 -3 20.5C-3 22.4305 -1.42548 24 0.504742 24ZM-23.4953 -25H-23.5142C-25.4444 -25 -27 -23.4328 -27 -21.5C-27 -19.5672 -25.4255 -18 -23.4953 -18C-21.5674 -18 -20 -19.5672 -20 -21.5C-20 -23.4328 -21.5674 -25 -23.4953 -25ZM-23.4953 36H-23.5142C-25.4444 36 -27 37.5672 -27 39.5C-27 41.4328 -25.4255 43 -23.4953 43C-21.5674 43 -20 41.4328 -20 39.5C-20 37.5672 -21.5674 36 -23.4953 36ZM-23.4953 57H-23.5142C-25.4444 57 -27 58.5672 -27 60.5024C-27 62.4328 -25.4255 64 -23.4953 64C-21.5674 64 -20 62.4328 -20 60.5024C-20 58.5672 -21.5674 57 -23.4953 57ZM0.504742 -18C2.43496 -18 4 -19.5672 4 -21.5C4 -23.4328 2.43496 -25 0.504742 -25H0.488144C-1.44444 -25 -3 -23.4328 -3 -21.5C-3 -19.5672 -1.42548 -18 0.504742 -18ZM0.504742 3C2.43496 3 4 1.43046 4 -0.5C4 -2.43283 2.43496 -4 0.504742 -4H0.488144C-1.44444 -4 -3 -2.43283 -3 -0.5C-3 1.43046 -1.42548 3 0.504742 3ZM0.504742 -38C2.43496 -38 4 -39.5672 4 -41.5C4 -43.4328 2.43496 -45 0.504742 -45H0.488144C-1.44444 -45 -3 -43.4328 -3 -41.5C-3 -39.5672 -1.42548 -38 0.504742 -38ZM-23.4953 17H-23.5142C-25.4444 17 -27 18.5648 -27 20.5C-27 22.4305 -25.4255 24 -23.4953 24C-21.5674 24 -20 22.4305 -20 20.5C-20 18.5648 -21.5674 17 -23.4953 17ZM-46.4929 36H-46.5142C-48.4444 36 -50 37.5672 -50 39.5C-50 41.4328 -48.4231 43 -46.4929 43C-44.5627 43 -43 41.4328 -43 39.5C-43 37.5672 -44.5627 36 -46.4929 36ZM-46.4929 17H-46.5142C-48.4444 17 -50 18.5648 -50 20.5C-50 22.4305 -48.4231 24 -46.4929 24C-44.5627 24 -43 22.4305 -43 20.5C-43 18.5648 -44.5627 17 -46.4929 17ZM-46.4941 57H-46.5154C-46.9543 57 -47.3646 57.0997 -47.7465 57.2517C-47.941 57.3253 -48.1023 57.444 -48.2779 57.5509C-48.4249 57.6435 -48.5744 57.7266 -48.7072 57.8429C-48.9373 58.0305 -49.1176 58.249 -49.2931 58.4912C-49.3263 58.541 -49.3595 58.5862 -49.3927 58.6408C-49.5825 58.9352 -49.7225 59.2439 -49.8174 59.5906L-49.8197 59.5929V59.5953C-49.9004 59.8898 -50 60.1794 -50 60.5024C-50 61.8796 -49.1816 63.0455 -48.0217 63.6153V63.6177H-48.0193C-47.5568 63.8433 -47.0586 63.9929 -46.513 63.9953C-46.5059 63.9953 -46.5012 64 -46.4941 64C-44.5632 64 -43 62.4328 -43 60.5024C-43 60.018 -43.0973 59.5573 -43.2752 59.1394C-43.8041 57.8833 -45.0471 57 -46.4941 57ZM70.5047 17H70.4858C68.5556 17 67 18.5648 67 20.5C67 22.4305 68.5745 24 70.5047 24C72.435 24 74 22.4305 74 20.5C74 18.5648 72.435 17 70.5047 17ZM-46.4941 -4H-46.5154C-46.9139 -4 -47.2816 -3.91214 -47.6279 -3.77442C-47.9434 -3.6652 -48.2186 -3.50136 -48.4842 -3.3114C-48.4866 -3.3114 -48.4866 -3.3114 -48.489 -3.30902C-49.3833 -2.67503 -50 -1.6825 -50 -0.5C-50 -0.350407 -49.9336 -0.22456 -49.9146 -0.0773392H-49.917C-49.917 -0.0725899 -49.9146 -0.0702171 -49.9122 -0.0678444C-49.8031 0.784599 -49.4212 1.53732 -48.8116 2.08345C-48.7286 2.15943 -48.6242 2.20217 -48.5364 2.26866C-48.2968 2.44437 -48.0668 2.6272 -47.7845 2.73881C-47.3883 2.90265 -46.9566 3 -46.4941 3C-45.0471 3 -43.8041 2.11906 -43.2752 0.860584C-43.0973 0.442673 -43 -0.0179787 -43 -0.5C-43 -0.982021 -43.0973 -1.44267 -43.2752 -1.86058C-43.8041 -3.11906 -45.0471 -4 -46.4941 -4ZM70.5047 36H70.4858C68.5556 36 67 37.5672 67 39.5C67 41.4328 68.5745 43 70.5047 43C72.435 43 74 41.4328 74 39.5C74 37.5672 72.435 36 70.5047 36ZM70.5047 -4H70.4858C68.5556 -4 67 -2.43283 67 -0.5C67 1.43046 68.5745 3 70.5047 3C72.435 3 74 1.43046 74 -0.5C74 -2.43283 72.435 -4 70.5047 -4ZM70.5047 78H70.4858C68.5556 78 67 79.5653 67 81.5012C67 83.4323 68.5745 85 70.5047 85C72.435 85 74 83.4323 74 81.5012C74 79.5653 72.435 78 70.5047 78ZM70.5047 57H70.4858C68.5556 57 67 58.5672 67 60.5024C67 62.4328 68.5745 64 70.5047 64C72.435 64 74 62.4328 74 60.5024C74 58.5672 72.435 57 70.5047 57ZM46.5059 -38C48.4355 -38 50 -39.5672 50 -41.5C50 -41.5 49.9976 -41.5024 49.9976 -41.5047C49.9976 -42.0723 49.8317 -42.5875 49.5899 -43.0624C49.5662 -43.1075 49.5354 -43.1408 49.5093 -43.1835C49.2557 -43.6323 48.9096 -44.0051 48.49 -44.3043H48.4876C47.9164 -44.7103 47.2574 -45 46.5059 -45H46.487C44.5574 -45 43 -43.4328 43 -41.5C43 -39.5672 44.5764 -38 46.5059 -38ZM70.5047 -25H70.4858C68.5556 -25 67 -23.4328 67 -21.5C67 -19.5672 68.5745 -18 70.5047 -18C72.435 -18 74 -19.5672 74 -21.5C74 -23.4328 72.435 -25 70.5047 -25ZM46.5047 -4H46.4858C44.5556 -4 43 -2.43283 43 -0.5C43 1.43046 44.5745 3 46.5047 3C48.435 3 50 1.43046 50 -0.5C50 -2.43283 48.435 -4 46.5047 -4ZM46.5047 57H46.4858C44.5556 57 43 58.5672 43 60.5024C43 62.4328 44.5745 64 46.5047 64C48.435 64 50 62.4328 50 60.5024C50 58.5672 48.435 57 46.5047 57ZM46.5047 36H46.4858C44.5556 36 43 37.5672 43 39.5C43 41.4328 44.5745 43 46.5047 43C48.435 43 50 41.4328 50 39.5C50 37.5672 48.435 36 46.5047 36ZM46.5047 17H46.4858C44.5556 17 43 18.5648 43 20.5C43 22.4305 44.5745 24 46.5047 24C48.435 24 50 22.4305 50 20.5C50 18.5648 48.435 17 46.5047 17ZM46.5047 78H46.4858C44.5556 78 43 79.5653 43 81.5012C43 83.4323 44.5745 85 46.5047 85C48.435 85 50 83.4323 50 81.5012C50 79.5653 48.435 78 46.5047 78ZM0.504742 43C2.43496 43 4 41.4328 4 39.5C4 37.5672 2.43496 36 0.504742 36H0.488144C-1.44444 36 -3 37.5672 -3 39.5C-3 41.4328 -1.42548 43 0.504742 43ZM2.97561 99.0261C2.87127 98.9216 2.729 98.8694 2.6128 98.7815C2.02236 98.3207 1.31335 98 0.504742 98H0.485771C-1.44444 98 -3 99.5653 -3 101.501C-3 102.451 -2.61348 103.306 -1.99695 103.938C-1.99458 103.941 -1.99458 103.943 -1.99221 103.943C-1.35671 104.594 -0.474594 105 0.504742 105C0.689701 105 0.848576 104.924 1.02642 104.895C1.02879 104.895 1.03117 104.893 1.03354 104.893C1.85874 104.765 2.57961 104.385 3.10366 103.784C3.18903 103.691 3.23882 103.577 3.31233 103.475C3.47121 103.249 3.63956 103.036 3.7439 102.777C3.90041 102.39 3.99289 101.967 3.99526 101.515C3.99526 101.511 4 101.508 4 101.501C4 100.613 3.64194 99.8242 3.09892 99.2066C3.04912 99.1496 3.02778 99.076 2.97561 99.0261ZM92.142 2.72465C92.5618 2.90268 93.022 3 93.5059 3C94.0159 3 94.4927 2.87894 94.9292 2.68193C94.9434 2.6748 94.9529 2.66294 94.9671 2.65582C95.3941 2.45642 95.7618 2.17633 96.0725 1.82977C96.6371 1.21024 97 0.403187 97 -0.498814C97 -2.43099 95.4344 -4 93.5059 -4H93.487C91.5561 -4 90 -2.43099 90 -0.498814C90 0.949135 90.8848 2.19295 92.142 2.72465ZM93.5059 24C95.4344 24 97 22.4305 97 20.5C97 18.5648 95.4344 17 93.5059 17H93.487C91.5561 17 90 18.5648 90 20.5C90 22.4305 91.5727 24 93.5059 24ZM93.5059 43C95.4344 43 97 41.4328 97 39.5C97 37.5672 95.4344 36 93.5059 36H93.487C91.5561 36 90 37.5672 90 39.5C90 41.4328 91.5727 43 93.5059 43ZM23.5047 -4H23.4881C21.5579 -4 20 -2.43283 20 -0.5C20 1.43046 21.5745 3 23.5047 3C25.435 3 27 1.43046 27 -0.5C27 -2.43283 25.435 -4 23.5047 -4ZM23.5047 -25H23.4881C21.5579 -25 20 -23.4328 20 -21.5C20 -19.5672 21.5745 -18 23.5047 -18C25.435 -18 27 -19.5672 27 -21.5C27 -23.4328 25.435 -25 23.5047 -25ZM23.5047 -45H23.4881C21.5579 -45 20 -43.4328 20 -41.5C20 -39.5672 21.5745 -38 23.5047 -38C25.435 -38 27 -39.5672 27 -41.5C27 -43.4328 25.435 -45 23.5047 -45ZM0.504742 85C2.43496 85 4 83.4323 4 81.5012C4 79.5653 2.43496 78 0.504742 78H0.488144C-1.44444 78 -3 79.5653 -3 81.5012C-3 83.4323 -1.42548 85 0.504742 85ZM0.504742 64C2.43496 64 4 62.4328 4 60.5024C4 58.5672 2.43496 57 0.504742 57H0.488144C-1.44444 57 -3 58.5672 -3 60.5024C-3 62.4328 -1.42548 64 0.504742 64ZM23.5047 17H23.4881C21.5579 17 20 18.5648 20 20.5C20 22.4305 21.5745 24 23.5047 24C25.435 24 27 22.4305 27 20.5C27 18.5648 25.435 17 23.5047 17ZM46.5047 -25H46.4858C44.5556 -25 43 -23.4328 43 -21.5C43 -19.5672 44.5745 -18 46.5047 -18C48.435 -18 50 -19.5672 50 -21.5C50 -23.4328 48.435 -25 46.5047 -25ZM23.5047 78H23.4881C21.5579 78 20 79.5653 20 81.5012C20 83.4323 21.5745 85 23.5047 85C25.435 85 27 83.4323 27 81.5012C27 79.5653 25.435 78 23.5047 78ZM23.5047 98H23.4881C21.5579 98 20 99.5677 20 101.501C20 103.435 21.5745 105 23.5047 105C25.435 105 27 103.435 27 101.501C27 99.5677 25.435 98 23.5047 98ZM23.5047 57H23.4881C21.5579 57 20 58.5672 20 60.5024C20 62.4328 21.5745 64 23.5047 64C25.435 64 27 62.4328 27 60.5024C27 58.5672 25.435 57 23.5047 57ZM23.5047 36H23.4881C21.5579 36 20 37.5672 20 39.5C20 41.4328 21.5745 43 23.5047 43C25.435 43 27 41.4328 27 39.5C27 37.5672 25.435 36 23.5047 36Z" fill="#7F56D9"/>
</svg>
